<svg viewBox="0 0 1024 680" preserveAspectRatio="xMidYMid slice" xmlns="http://www.w3.org/2000/svg" role="img" aria-label="欢迎 · 工作区加载中" pointer-events="none" style="will-change: transform, opacity; contain: strict; width: 100%; height: 100%; display: block;">
  <defs>
    <pattern id="g" width="32" height="32" patternUnits="userSpaceOnUse"><path d="M32 0H0V32" fill="none" stroke="rgba(255,255,255,.045)" stroke-width=".6"/></pattern>
    <radialGradient id="gm" cx="50%" cy="50%" r="60%"><stop offset="0%" stop-color="#fff" stop-opacity=".9"/><stop offset="100%" stop-color="#fff" stop-opacity="0"/></radialGradient>
    <mask id="mk"><rect width="1024" height="680" fill="url(#gm)"/></mask>
    <linearGradient id="ltg" x1="0" x2="1" y1="0" y2="0"><stop offset="0" stop-color="#F7F8F8" stop-opacity="0"/><stop offset=".5" stop-color="#F7F8F8" stop-opacity=".85"/><stop offset="1" stop-color="#F7F8F8" stop-opacity="0"/></linearGradient>
    <clipPath id="lpc"><rect x="56" y="96" width="1168" height="4"/></clipPath>
  </defs>
  <rect width="1024" height="680" fill="#08090A"/>
  <g mask="url(#mk)"><rect width="1024" height="680" fill="url(#g)"/></g>
  <g transform="translate(0 20) scale(0.8)">
  <g font-family="ui-monospace,SFMono-Regular,Menlo,monospace" font-size="10" letter-spacing="1.4" fill="rgba(255,255,255,.55)">
    <text x="56" y="46">FIG 05.0</text>
    <text x="56" y="60" fill="rgba(255,255,255,.34)">WELCOME · ISOMETRIC LAYER · v3.14</text>
    <text x="56" y="74" fill="rgba(255,255,255,.22)">5 LAYERS · 1280 × 800</text>
    <text x="1224" y="46" text-anchor="end">PLATE 05 · REV 3</text>
    <text x="1224" y="60" text-anchor="end" fill="rgba(255,255,255,.34)">SHEET WELCOME / 01</text>
    <text x="1224" y="74" text-anchor="end" fill="rgba(255,255,255,.28)">SPEC · ISO 128 · ORTHO 30°</text>
    <text x="1224" y="736" text-anchor="end" fill="rgba(255,255,255,.3)">∆t live · running · frame auto<animate attributeName="opacity" values=".55;1;.55" dur="3.4s" repeatCount="indefinite"/></text>
  </g>
  <g transform="translate(560 440)">
    <g fill="none" stroke="#F7F8F8" stroke-linejoin="round" stroke-linecap="round" stroke-width="1.1">
      <path d="M-190 110L0 160L190 110L0 60Z" stroke-opacity=".3"><animateTransform attributeName="transform" type="translate" values="0 0;0 -1;0 0" keyTimes="0;0.5;1" dur="5.2s" begin="1.2s" repeatCount="indefinite" calcMode="spline" keySplines="0.45 0 0.55 1;0.45 0 0.55 1"/></path>
      <path d="M-190 60L0 110L190 60L0 10Z" stroke-opacity=".48"><animateTransform attributeName="transform" type="translate" values="0 0;0 -1.5;0 0" keyTimes="0;0.5;1" dur="5.2s" begin="0.9s" repeatCount="indefinite" calcMode="spline" keySplines="0.45 0 0.55 1;0.45 0 0.55 1"/></path>
      <path d="M-190 10L0 60L190 10L0 -40Z" stroke-opacity=".65"><animateTransform attributeName="transform" type="translate" values="0 0;0 -2;0 0" keyTimes="0;0.5;1" dur="5.2s" begin="0.6s" repeatCount="indefinite" calcMode="spline" keySplines="0.45 0 0.55 1;0.45 0 0.55 1"/></path>
      <path d="M-190 -40L0 10L190 -40L0 -90Z" stroke-opacity=".82"><animateTransform attributeName="transform" type="translate" values="0 0;0 -2.5;0 0" keyTimes="0;0.5;1" dur="5.2s" begin="0.3s" repeatCount="indefinite" calcMode="spline" keySplines="0.45 0 0.55 1;0.45 0 0.55 1"/></path>
      <path d="M-190 -90L0 -40L190 -90L0 -140Z" stroke-opacity="1" stroke-width="1.25"><animateTransform attributeName="transform" type="translate" values="0 0;0 -3;0 0" keyTimes="0;0.5;1" dur="5.2s" begin="0s" repeatCount="indefinite" calcMode="spline" keySplines="0.45 0 0.55 1;0.45 0 0.55 1"/></path>
    </g>
    <g stroke="rgba(255,255,255,.22)" stroke-width=".6" stroke-dasharray="2 3" fill="none">
      <path d="M-190 110L-190 -90"/><path d="M190 110L190 -90"/>
      <path d="M0 160L0 -140"/>
      <path d="M-190 60L190 60"/><path d="M-190 10L190 10"/><path d="M-190 -40L190 -40"/>
    </g>
    <g fill="rgba(255,255,255,.55)">
      <circle cx="-190" cy="110" r="1.8"/><circle cx="0" cy="160" r="1.8"/><circle cx="190" cy="110" r="1.8"/>
      <circle cx="-190" cy="60" r="1.6"/><circle cx="190" cy="60" r="1.6"/>
      <circle cx="-190" cy="10" r="1.6"/><circle cx="190" cy="10" r="1.6"/>
      <circle cx="-190" cy="-40" r="1.6"/><circle cx="190" cy="-40" r="1.6"/>
      <circle cx="-190" cy="-90" r="1.8"/><circle cx="190" cy="-90" r="1.8"/>
      <circle cx="0" cy="-140" r="1.8"/>
      <circle cx="0" cy="-90" r="1.4"/>
    </g>
    <g fill="none" stroke="#F7F8F8" stroke-width="1">
      <ellipse cx="0" cy="-160" rx="30" ry="17" stroke-opacity=".9"/>
      <ellipse cx="0" cy="-160" rx="14" ry="8" stroke-opacity=".45">
        <animate attributeName="rx" values="14;22;14" dur="3s" repeatCount="indefinite"/>
        <animate attributeName="ry" values="8;12.5;8" dur="3s" repeatCount="indefinite"/>
      </ellipse>
      <ellipse cx="0" cy="-160" rx="30" ry="17" stroke-opacity="0" stroke-width=".7">
        <animate attributeName="rx" values="30;56;56" dur="3s" repeatCount="indefinite"/>
        <animate attributeName="ry" values="17;32;32" dur="3s" repeatCount="indefinite"/>
        <animate attributeName="stroke-opacity" values="0;.55;0" dur="3s" repeatCount="indefinite"/>
      </ellipse>
    </g>
    <circle cx="0" cy="-160" r="2.4" fill="#5E6AD2">
      <animate attributeName="opacity" values=".55;1;.55" dur="3s" repeatCount="indefinite"/>
    </circle>
    <g stroke="rgba(255,255,255,.38)" stroke-width=".6" fill="none" stroke-dasharray="1.5 2.5">
      <path d="M190 110 L220 110 L240 110"/>
      <path d="M190 60 L220 60 L240 60"/>
      <path d="M190 10 L220 10 L240 10"/>
      <path d="M190 -40 L220 -40 L240 -40"/>
      <path d="M190 -90 L220 -90 L240 -90"/>
      <animate attributeName="stroke-dashoffset" values="0;-16" dur="3.6s" repeatCount="indefinite"/>
    </g>
    <g fill="rgba(255,255,255,.7)" font-family="ui-monospace,SFMono-Regular,Menlo,monospace" font-size="10" letter-spacing=".8">
      <text x="246" y="113">[01] WORKSPACE · xiaojianc</text>
      <text x="246" y="63">[02] TEAM · 3 ACTIVE</text>
      <text x="246" y="13">[03] PROJECT · 12 OPEN</text>
      <text x="246" y="-37">[04] CYCLE · 24 · W3</text>
      <text x="246" y="-87">[05] SESSION · ONLINE</text>
    </g>
    <g fill="rgba(255,255,255,.72)">
      <circle cx="190" cy="110" r="2"/><circle cx="190" cy="60" r="2"/><circle cx="190" cy="10" r="2"/><circle cx="190" cy="-40" r="2"/><circle cx="190" cy="-90" r="2"/>
    </g>
    <g fill="none" stroke="rgba(255,255,255,.22)" stroke-width=".7" stroke-dasharray="2 4">
      <g>
        <animateTransform attributeName="transform" type="rotate" from="0" to="360" dur="28s" repeatCount="indefinite"/>
        <ellipse cx="0" cy="80" rx="210" ry="62">
          <animate attributeName="stroke-dashoffset" values="0;-24" dur="4.2s" repeatCount="indefinite"/>
        </ellipse>
      </g>
    </g>
    <g stroke="rgba(255,255,255,.45)" stroke-width=".6" fill="none">
      <path d="M-226 110 L-226 -90"/>
      <path d="M-230 110 L-222 110"/>
      <path d="M-230 -90 L-222 -90"/>
    </g>
    <text x="-238" y="10" font-family="ui-monospace,SFMono-Regular,Menlo,monospace" font-size="9" fill="rgba(255,255,255,.5)" transform="rotate(-90 -238 10)" letter-spacing="1.4">H 240 · 5 LAYER</text>
  </g>
  <g transform="translate(200 370)" fill="none" stroke="#F7F8F8" stroke-width="1" stroke-linejoin="round">
    <path d="M-42 20L0 40L42 20L0 0Z" stroke-opacity=".42"/>
    <path d="M-42 -6L0 14L42 -6L0 -26Z" stroke-opacity=".58"/>
    <path d="M-42 20L-42 -6 M42 20L42 -6 M0 40L0 14" stroke-opacity=".22" stroke-dasharray="2 3">
      <animate attributeName="stroke-dashoffset" values="0;-10" dur="4.8s" repeatCount="indefinite"/>
    </path>
    <circle cx="0" cy="-26" r="1.6" fill="rgba(255,255,255,.45)" stroke="none">
      <animate attributeName="opacity" values=".3;.85;.3" dur="3.2s" repeatCount="indefinite"/>
    </circle>
    <text x="-52" y="58" font-family="ui-monospace,SFMono-Regular,Menlo,monospace" font-size="9" fill="rgba(255,255,255,.35)" stroke="none" letter-spacing="1.2">FIG 05.1 · ISSUE · 02 STATE</text>
  </g>
  <g transform="translate(1100 460)" fill="none" stroke="#F7F8F8" stroke-width="1" stroke-linejoin="round">
    <path d="M-60 18L0 48L60 18L0 -12Z" stroke-opacity=".35"/>
    <path d="M-60 2L0 32L60 2L0 -28Z" stroke-opacity=".48"/>
    <path d="M-60 -14L0 16L60 -14L0 -44Z" stroke-opacity=".62"/>
    <path d="M-60 18L-60 -14 M60 18L60 -14 M0 48L0 16" stroke-opacity=".2" stroke-dasharray="2 3">
      <animate attributeName="stroke-dashoffset" values="0;-10" dur="5.6s" repeatCount="indefinite"/>
    </path>
    <circle cx="0" cy="-44" r="1.6" fill="rgba(255,255,255,.55)" stroke="none">
      <animate attributeName="opacity" values=".3;.9;.3" dur="3.6s" begin=".4s" repeatCount="indefinite"/>
    </circle>
    <text x="-70" y="66" font-family="ui-monospace,SFMono-Regular,Menlo,monospace" font-size="9" fill="rgba(255,255,255,.35)" stroke="none" letter-spacing="1.2">FIG 05.2 · PROJECT · 03 PHASE</text>
  </g>
  <g transform="translate(320 660)" fill="none" stroke="rgba(255,255,255,.38)" stroke-width=".9">
    <path d="M0 10 L20 4 L40 14 L60 -2 L80 6 L100 -8"/>
    <g fill="rgba(255,255,255,.5)" stroke="none">
      <circle cx="0" cy="10" r="1.6"/><circle cx="20" cy="4" r="1.6"/><circle cx="40" cy="14" r="1.6"/><circle cx="60" cy="-2" r="1.6"/><circle cx="80" cy="6" r="1.6"/>
    </g>
    <circle r="2" fill="rgba(255,255,255,.95)" stroke="none">
      <animateMotion dur="4.2s" repeatCount="indefinite" path="M0 10 L20 4 L40 14 L60 -2 L80 6 L100 -8"/>
      <animate attributeName="opacity" values="0;1;1;0" keyTimes="0;.15;.85;1" dur="4.2s" repeatCount="indefinite"/>
    </circle>
    <circle cx="100" cy="-8" r="2.4" fill="rgba(255,255,255,.9)" stroke="none">
      <animate attributeName="opacity" values=".35;1;.35" dur="2.4s" repeatCount="indefinite"/>
    </circle>
    <text x="-6" y="32" font-family="ui-monospace,SFMono-Regular,Menlo,monospace" font-size="9" fill="rgba(255,255,255,.35)" stroke="none" letter-spacing="1.2">FIG 05.3 · LATENCY · 0.43 ms</text>
  </g>
  <g transform="translate(950 118)" font-family="ui-monospace,SFMono-Regular,Menlo,monospace" font-size="9" letter-spacing="1">
    <path d="M0 0h224" stroke="rgba(255,255,255,.1)" stroke-width=".5" fill="none"/>
    <text x="0" y="16" fill="rgba(255,255,255,.38)">SYSTEM / LIVE</text>
    <text x="224" y="16" text-anchor="end" fill="rgba(255,255,255,.22)">6 METRICS</text>
    <g fill="rgba(255,255,255,.42)">
      <text x="0" y="36">LAYERS</text>
      <text x="224" y="36" text-anchor="end" fill="rgba(255,255,255,.68)">5 / 9</text>
      <rect x="0" y="41" width="224" height="1.5" fill="rgba(255,255,255,.07)"/>
      <rect x="0" y="41" width="124" height="1.5" fill="rgba(255,255,255,.45)">
        <animate attributeName="width" values="120;130;118;128;120" dur="10s" repeatCount="indefinite"/>
      </rect>
      <text x="0" y="58">PROCESS</text>
      <text x="224" y="58" text-anchor="end" fill="rgba(255,255,255,.68)">62%</text>
      <rect x="0" y="63" width="224" height="1.5" fill="rgba(255,255,255,.07)"/>
      <rect x="0" y="63" width="139" height="1.5" fill="rgba(255,255,255,.5)">
        <animate attributeName="width" values="132;148;138;142;132" dur="8s" repeatCount="indefinite"/>
      </rect>
      <text x="0" y="80">RENDER</text>
      <text x="224" y="80" text-anchor="end" fill="rgba(255,255,255,.68)">7.4k ops/s</text>
      <rect x="0" y="85" width="224" height="1.5" fill="rgba(255,255,255,.07)"/>
      <rect x="0" y="85" width="180" height="1.5" fill="rgba(255,255,255,.5)">
        <animate attributeName="width" values="172;190;178;186;172" dur="7s" repeatCount="indefinite"/>
      </rect>
      <text x="0" y="102">MEMORY</text>
      <text x="224" y="102" text-anchor="end" fill="rgba(255,255,255,.68)">184 MB</text>
      <rect x="0" y="107" width="224" height="1.5" fill="rgba(255,255,255,.07)"/>
      <rect x="0" y="107" width="44" height="1.5" fill="rgba(255,255,255,.5)">
        <animate attributeName="width" values="42;52;44;48;42" dur="9s" repeatCount="indefinite"/>
      </rect>
      <text x="0" y="124">LATENCY</text>
      <text x="224" y="124" text-anchor="end" fill="rgba(255,255,255,.68)">0.43 ms</text>
      <rect x="0" y="129" width="224" height="1.5" fill="rgba(255,255,255,.07)"/>
      <rect x="0" y="129" width="22" height="1.5" fill="rgba(255,255,255,.55)">
        <animate attributeName="width" values="16;40;22;32;16" dur="5.4s" repeatCount="indefinite"/>
      </rect>
      <text x="0" y="146">UPTIME</text>
      <text x="224" y="146" text-anchor="end" fill="rgba(255,255,255,.68)">100%</text>
      <rect x="0" y="151" width="224" height="1.5" fill="rgba(255,255,255,.07)"/>
      <rect x="0" y="151" width="224" height="1.5" fill="rgba(255,255,255,.5)"/>
    </g>
    <path d="M0 162h224" stroke="rgba(255,255,255,.1)" stroke-width=".5" fill="none"/>
  </g>
  <g transform="translate(990 620)" fill="none" stroke="#F7F8F8" stroke-width=".85">
    <g stroke-opacity=".2" stroke-dasharray="2 3">
      <path d="M-54 -12L-18 0"/>
      <path d="M-54 -12L-30 28"/>
      <path d="M-18 0L30 -18"/>
      <path d="M-18 0L6 24"/>
      <path d="M30 -18L54 8"/>
      <path d="M6 24L54 8"/>
      <path d="M-30 28L6 24"/>
      <animate attributeName="stroke-dashoffset" values="0;-20" dur="6.4s" repeatCount="indefinite"/>
    </g>
    <g fill="rgba(255,255,255,.5)" stroke="none">
      <circle cx="-54" cy="-12" r="2.2"/>
      <circle cx="-18" cy="0" r="2.2"/>
      <circle cx="30" cy="-18" r="2.2"/>
      <circle cx="6" cy="24" r="2.2"/>
      <circle cx="-30" cy="28" r="2.2"/>
    </g>
    <circle cx="54" cy="8" r="2.6" fill="rgba(255,255,255,.85)" stroke="none">
      <animate attributeName="opacity" values=".35;1;.35" dur="2.8s" repeatCount="indefinite"/>
    </circle>
    <g fill="rgba(255,255,255,.22)" stroke="none" font-family="ui-monospace,SFMono-Regular,Menlo,monospace" font-size="7.5" letter-spacing=".5">
      <text x="-50" y="-16">01</text>
      <text x="-14" y="-4">02</text>
      <text x="34" y="-22">03</text>
      <text x="10" y="20">04</text>
      <text x="-26" y="24">05</text>
      <text x="58" y="4">06</text>
    </g>
    <text x="-28" y="58" font-family="ui-monospace,SFMono-Regular,Menlo,monospace" font-size="9" fill="rgba(255,255,255,.35)" stroke="none" letter-spacing="1.2">FIG 05.4 · GRAPH · 06 NODE</text>
  </g>
  <g font-family="ui-monospace,SFMono-Regular,Menlo,monospace" font-size="9" letter-spacing="1.4">
    <text x="56" y="92" fill="rgba(255,255,255,.35)">LOADING · WORKSPACE</text>
    <text x="1224" y="92" text-anchor="end" fill="rgba(255,255,255,.22)">v3.14</text>
    <rect x="56" y="98" width="1168" height="1.5" fill="rgba(255,255,255,.08)"/>
    <g clip-path="url(#lpc)">
      <rect x="-220" y="98" width="220" height="1.5" fill="url(#ltg)">
        <animate attributeName="x" values="-220;1224" dur="2.8s" repeatCount="indefinite"/>
      </rect>
    </g>
    <circle cx="56" cy="98.75" r="1.2" fill="rgba(255,255,255,.55)">
      <animate attributeName="opacity" values=".3;.85;.3" dur="2.8s" repeatCount="indefinite"/>
    </circle>
    <circle cx="1224" cy="98.75" r="1.2" fill="rgba(255,255,255,.55)">
      <animate attributeName="opacity" values=".3;.85;.3" dur="2.8s" begin="1.4s" repeatCount="indefinite"/>
    </circle>
  </g>
  </g>
</svg>
